<svg xmlns="http://www.w3.org/2000/svg" xmlns:xlink="http://www.w3.org/1999/xlink" version="1.1" x="0px" y="0px" viewBox="-255 347 100 125" style="enable-background:new -255 347 100 100;" xml:space="preserve"><path d="M-219.7,388.3h2c0-2.6-2.5-4.7-5.5-4.7s-5.5,2.1-5.5,4.7h2c0-1.5,1.6-2.7,3.5-2.7C-221.2,385.6-219.7,386.8-219.7,388.3z"/><path d="M-202.3,387.8h2c0-2.6-2.5-4.7-5.5-4.7s-5.5,2.1-5.5,4.7h2c0-1.5,1.6-2.7,3.5-2.7C-203.9,385.1-202.3,386.3-202.3,387.8z"/><path d="M-208.4,396.8c-0.6,0-1,0.5-1,1c0.1,1.1-0.8,2-1.9,2.1c-0.5,0-1-0.2-1.4-0.5c-0.4-0.3-0.6-0.8-0.6-1.4c0-0.1,0-0.1,0-0.1  v-0.1c0-0.1,0-0.2-0.1-0.3c0.6-0.4,1.2-0.8,1.8-1.2c0,0,0.1,0,0.1-0.1c0.1,0,0.1-0.1,0.1-0.2c0.6-1.1-0.3-2.5-1.5-2.5h-2.8  c-1.2,0-2.1,1.3-1.5,2.4c0,0,0,0.1,0.1,0.1l0.1,0.1c0.6,0.4,1.2,0.8,1.7,1.2c0,0.1-0.1,0.3-0.1,0.4c0.1,1.1-0.8,2-1.9,2.1  c-0.5,0-1-0.2-1.4-0.5c-0.4-0.4-0.6-0.8-0.6-1.4s-0.5-1-1-1c-0.6,0-1,0.5-1,1c0.1,1.1,0.5,2,1.3,2.7c0.7,0.7,1.7,1,2.7,1  c0.1,0,0.1,0,0.2,0c1.1-0.1,2-0.5,2.7-1.3c0,0,0,0,0-0.1c0.1,0.1,0.2,0.2,0.3,0.3c0.7,0.7,1.7,1,2.7,1c0.1,0,0.1,0,0.2,0  c1.1-0.1,2-0.5,2.7-1.3c0.7-0.8,1.1-1.8,1-2.9C-207.3,397.2-207.8,396.7-208.4,396.8z"/><path d="M-174.7,400.3c-0.4-0.3-0.8-0.6-1.2-0.9c-0.8-0.6-1.6-1.2-2.4-1.9c-0.8-0.7-1.2-1.3-1.5-1.9c-0.4-0.9,0.1-1.8,0.3-2.3  c0.7-1.1,1.8-1.8,2.8-1.9c0.9-0.1,1.9,0.3,2.5,1c0.6,0.6,1.5,0.6,2.1,0.1c0.6-0.6,0.6-1.5,0.1-2.1c-1.3-1.3-3.1-2-4.9-1.9  c-2,0.2-4,1.5-5.2,3.3c-1,1.6-1.2,3.4-0.6,5c0.4,1.1,1.2,2,2.3,3c0.8,0.7,1.7,1.4,2.5,2c0.4,0.3,0.8,0.6,1.2,0.9  c3.8,3,5.1,5.5,4.3,8.6c-0.6,2.4-1.8,4.1-3.8,5.3c-4.9,2.8-12.6,1.4-15.2,0.8c2.2-3.9,3.5-8.4,3.5-13.2v-8.6c0-7-2.7-13.4-7.2-18.2  l0.8-9.8v-0.1c-0.1-1.5-0.9-2.7-2.2-3.4c-1.3-0.7-2.8-0.6-4,0.2l-6.4,5.7c-2.4-0.7-4.9-1.1-7.5-1.1c-2.5,0-4.9,0.4-7.2,1l-6.1-5.8  l-0.1-0.1c-1.2-0.8-2.7-1-4-0.4s-2.2,1.8-2.3,3.3v0.1l0.6,10.2c-4.7,4.8-7.5,11.2-7.5,18.3v8.6c0,14.7,12,26.6,26.6,26.6  c8.7,0,16.5-4.2,21.3-10.7l0,0c0.3,0.1,4.4,1.2,9.1,1.2c3.1,0,6.6-0.5,9.4-2.1c2.7-1.6,4.5-4,5.2-7.2  C-168,406.4-171.5,402.8-174.7,400.3z M-198.8,366.8c0.4-0.2,0.8-0.1,1,0c0.2,0.1,0.5,0.3,0.6,0.8l-0.6,7.2  c-1.8-1.4-3.8-2.7-5.9-3.6L-198.8,366.8z M-230.6,366.4c0.2-0.1,0.5-0.2,1,0.1l4.9,4.6c-2.2,0.9-4.2,2.1-6,3.6l-0.4-7.5  C-231.1,366.7-230.8,366.5-230.6,366.4z M-214.4,427.7c-13,0-23.6-10.6-23.6-23.6v-8.6c0-13,10.6-23.6,23.6-23.6  s23.6,10.6,23.6,23.6v8.6C-190.8,417.1-201.4,427.7-214.4,427.7z"/><path d="M-204.2,395.5c0.2,0.4,0.5,0.6,0.9,0.6c0.1,0,0.3,0,0.4-0.1l8.4-3.6c0.5-0.2,0.7-0.8,0.5-1.3s-0.8-0.7-1.3-0.5l-8.4,3.6  C-204.1,394.4-204.4,395-204.2,395.5z"/><path d="M-194.5,403l-8.4-3.6c-0.5-0.2-1.1,0-1.3,0.5s0,1.1,0.5,1.3l8.4,3.6c0.1,0.1,0.3,0.1,0.4,0.1c0.4,0,0.8-0.2,0.9-0.6  C-193.8,403.8-194,403.2-194.5,403z"/><path d="M-194.5,396.8h-8.4c-0.6,0-1,0.4-1,1c0,0.6,0.4,1,1,1h8.4c0.6,0,1-0.4,1-1C-193.5,397.2-193.9,396.8-194.5,396.8z"/><path d="M-233.9,392.5l8.4,3.6c0.1,0.1,0.3,0.1,0.4,0.1c0.4,0,0.8-0.2,0.9-0.6c0.2-0.5,0-1.1-0.5-1.3l-8.4-3.6  c-0.5-0.2-1.1,0-1.3,0.5C-234.6,391.7-234.4,392.3-233.9,392.5z"/><path d="M-225.5,399.5l-8.4,3.5c-0.5,0.2-0.7,0.8-0.5,1.3c0.2,0.4,0.5,0.6,0.9,0.6c0.1,0,0.3,0,0.4-0.1l8.4-3.6  c0.5-0.2,0.7-0.8,0.5-1.3C-224.4,399.5-225,399.2-225.5,399.5z"/><path d="M-225.6,398.8c0.6,0,1-0.4,1-1c0-0.6-0.4-1-1-1h-8.4c-0.6,0-1,0.4-1,1c0,0.6,0.4,1,1,1H-225.6z"/><text x="-255" y="462" fill="#000000" font-size="5px" font-weight="bold" font-family="'Helvetica Neue', Helvetica, Arial-Unicode, Arial, Sans-serif">Created by Alina Oleynik</text><text x="-255" y="467" fill="#000000" font-size="5px" font-weight="bold" font-family="'Helvetica Neue', Helvetica, Arial-Unicode, Arial, Sans-serif">from the Noun Project</text></svg>